<svg width="16" height="16" viewBox="0 0 16 16" fill="none" xmlns="http://www.w3.org/2000/svg">
<path d="M15.8406 4.80007C15.8406 4.80007 15.6844 3.69695 15.2031 3.21257C14.5938 2.57507 13.9125 2.57195 13.6 2.53445C11.3625 2.37195 8.00313 2.37195 8.00313 2.37195H7.99687C7.99687 2.37195 4.6375 2.37195 2.4 2.53445C2.0875 2.57195 1.40625 2.57507 0.796875 3.21257C0.315625 3.69695 0.1625 4.80007 0.1625 4.80007C0.1625 4.80007 0 6.09695 0 7.3907V8.6032C0 9.89695 0.159375 11.1938 0.159375 11.1938C0.159375 11.1938 0.315625 12.2969 0.79375 12.7813C1.40313 13.4188 2.20313 13.3969 2.55938 13.4657C3.84063 13.5876 8 13.6251 8 13.6251C8 13.6251 11.3625 13.6188 13.6 13.4594C13.9125 13.4219 14.5938 13.4188 15.2031 12.7813C15.6844 12.2969 15.8406 11.1938 15.8406 11.1938C15.8406 11.1938 16 9.90007 16 8.6032V7.3907C16 6.09695 15.8406 4.80007 15.8406 4.80007ZM6.34688 10.0751V5.5782L10.6687 7.83445L6.34688 10.0751Z" fill="#8A8A8A"/>
</svg>
