<svg width="26" height="26" viewBox="0 0 26 26" fill="none" xmlns="http://www.w3.org/2000/svg">
<path d="M7.3125 5.6875C4.63062 5.6875 2.4375 7.88062 2.4375 10.5625C2.4375 12.1748 3.23096 13.6094 4.44336 14.498C2.30103 15.5613 0.8125 17.7639 0.8125 20.3125H2.4375C2.4375 17.6116 4.61157 15.4375 7.3125 15.4375C10.0134 15.4375 12.1875 17.6116 12.1875 20.3125H13.8125C13.8125 17.6116 15.9866 15.4375 18.6875 15.4375C21.3884 15.4375 23.5625 17.6116 23.5625 20.3125H25.1875C25.1875 17.7639 23.699 15.5613 21.5566 14.498C22.769 13.6094 23.5625 12.1748 23.5625 10.5625C23.5625 7.88062 21.3694 5.6875 18.6875 5.6875C16.0056 5.6875 13.8125 7.88062 13.8125 10.5625C13.8125 12.1748 14.606 13.6094 15.8184 14.498C14.6345 15.0852 13.6411 16.012 13 17.1641C12.3589 16.012 11.3655 15.0852 10.1816 14.498C11.394 13.6094 12.1875 12.1748 12.1875 10.5625C12.1875 7.88062 9.99438 5.6875 7.3125 5.6875ZM7.3125 7.3125C9.11841 7.3125 10.5625 8.75659 10.5625 10.5625C10.5625 12.3684 9.11841 13.8125 7.3125 13.8125C5.50659 13.8125 4.0625 12.3684 4.0625 10.5625C4.0625 8.75659 5.50659 7.3125 7.3125 7.3125ZM18.6875 7.3125C20.4934 7.3125 21.9375 8.75659 21.9375 10.5625C21.9375 12.3684 20.4934 13.8125 18.6875 13.8125C16.8816 13.8125 15.4375 12.3684 15.4375 10.5625C15.4375 8.75659 16.8816 7.3125 18.6875 7.3125Z" fill="#B5B5B5"/>
</svg>
