<svg width="22" height="23" viewBox="0 0 22 23" fill="none" xmlns="http://www.w3.org/2000/svg">
    <path d="M10.996 8.75a2.768 2.768 0 0 0-2.75 2.75 2.768 2.768 0 0 0 2.75 2.75 2.768 2.768 0 0 0 2.75-2.75 2.769 2.769 0 0 0-2.75-2.75z" fill="#fff"/>
    <path d="M10.996 5.083c-6.996 0-9.1 6.066-9.119 6.127l-.097.29.097.29c.02.061 2.123 6.127 9.12 6.127 6.996 0 9.1-6.066 9.118-6.127l.098-.29-.097-.29c-.02-.061-2.123-6.127-9.12-6.127zm0 11c-4.905 0-6.805-3.525-7.265-4.583.462-1.062 2.363-4.583 7.265-4.583 4.905 0 6.806 3.525 7.266 4.583-.462 1.061-2.363 4.583-7.266 4.583z" fill="#fff"/>
</svg>
