<svg width="20" height="19" viewBox="0 0 20 19" fill="none" xmlns="http://www.w3.org/2000/svg">
<path d="M9.81405 0L6.11415 2.31612H2.94421V4.27893L0.951963 5.54494C0.382748 5.88843 0 6.50671 0 7.22314V17.0372C0 18.1265 0.883264 19 1.96281 19H17.6653C18.7546 19 19.6281 18.1265 19.6281 17.0372V7.22314C19.6281 6.50671 19.2454 5.88843 18.6761 5.54494L16.6839 4.27893V2.31612H13.5139L9.81405 0ZM4.90702 4.27893H14.7211V9.06818L9.81405 12.1302L4.90702 9.06818V4.27893ZM5.88843 5.26033V6.73244H13.7397V5.26033H5.88843ZM2.94421 6.61467V7.84143L1.96281 7.22314L2.94421 6.61467ZM16.6839 6.61467L17.6653 7.22314L16.6839 7.84143V6.61467ZM5.88843 7.71384V9.18595H13.7397V7.71384H5.88843Z" fill="black"/>
</svg>
