<svg width="25" height="19" viewBox="0 0 25 19" fill="none" xmlns="http://www.w3.org/2000/svg">
<path d="M0 0V1.78125C0 6.70938 2.62438 11.02 6.53125 13.4187V19H24.3438V16.625C24.3438 13.4662 18.0144 11.875 14.8438 11.875C14.8438 11.875 14.6419 11.875 14.5469 11.875C8.90625 11.875 4.15625 7.125 4.15625 1.78125V0H0ZM14.8438 1.01786C13.584 1.01786 12.3758 1.5183 11.485 2.4091C10.5942 3.2999 10.0938 4.50808 10.0938 5.76786C10.0938 7.02764 10.5942 8.23582 11.485 9.12661C12.3758 10.0174 13.584 10.5179 14.8438 10.5179C16.1035 10.5179 17.3117 10.0174 18.2025 9.12661C19.0933 8.23582 19.5938 7.02764 19.5938 5.76786C19.5938 4.50808 19.0933 3.2999 18.2025 2.4091C17.3117 1.5183 16.1035 1.01786 14.8438 1.01786Z" fill="black"/>
</svg>
