<svg width="20" height="21" viewBox="0 0 20 21" fill="none" xmlns="http://www.w3.org/2000/svg">
<path d="M18.1824 6.85925C18.1057 6.74848 18.0034 6.65794 17.8841 6.59538C17.7648 6.53283 17.6321 6.50013 17.4974 6.50009H6.10823L5.14656 4.19175C5.02047 3.88777 4.80695 3.62808 4.53308 3.44559C4.25921 3.26311 3.93732 3.16606 3.60823 3.16675H1.66406V4.83342H3.60823L7.56156 14.3209C7.62488 14.4727 7.73171 14.6024 7.86858 14.6936C8.00546 14.7848 8.16626 14.8334 8.33073 14.8334H14.9974C15.3449 14.8334 15.6557 14.6176 15.7782 14.2934L18.2782 7.62675C18.3255 7.5006 18.3414 7.36488 18.3247 7.23121C18.3081 7.09754 18.2592 6.96991 18.1824 6.85925ZM14.4199 13.1668H8.88656L6.80323 8.16675H16.2949L14.4199 13.1668Z" fill="white"/>
<path d="M8.74805 18.1667C9.4384 18.1667 9.99805 17.6071 9.99805 16.9167C9.99805 16.2264 9.4384 15.6667 8.74805 15.6667C8.05769 15.6667 7.49805 16.2264 7.49805 16.9167C7.49805 17.6071 8.05769 18.1667 8.74805 18.1667Z" fill="white"/>
<path d="M14.582 18.1667C15.2724 18.1667 15.832 17.6071 15.832 16.9167C15.832 16.2264 15.2724 15.6667 14.582 15.6667C13.8917 15.6667 13.332 16.2264 13.332 16.9167C13.332 17.6071 13.8917 18.1667 14.582 18.1667Z" fill="white"/>
</svg>
