<svg width="20" height="21" viewBox="0 0 20 21" fill="none" xmlns="http://www.w3.org/2000/svg">
<path d="M14.998 14.0668C14.3647 14.0668 13.798 14.3168 13.3647 14.7085L7.42305 11.2502C7.46471 11.0585 7.49805 10.8668 7.49805 10.6668C7.49805 10.4668 7.46471 10.2752 7.42305 10.0835L13.298 6.6585C13.748 7.07516 14.3397 7.3335 14.998 7.3335C16.3814 7.3335 17.498 6.21683 17.498 4.8335C17.498 3.45016 16.3814 2.3335 14.998 2.3335C13.6147 2.3335 12.498 3.45016 12.498 4.8335C12.498 5.0335 12.5314 5.22516 12.573 5.41683L6.69805 8.84183C6.24805 8.42516 5.65638 8.16683 4.99805 8.16683C3.61471 8.16683 2.49805 9.2835 2.49805 10.6668C2.49805 12.0502 3.61471 13.1668 4.99805 13.1668C5.65638 13.1668 6.24805 12.9085 6.69805 12.4918L12.6314 15.9502C12.5897 16.1252 12.5647 16.3085 12.5647 16.5002C12.5647 17.8418 13.6564 18.9252 14.998 18.9252C16.3397 18.9252 17.4314 17.8418 17.4314 16.5002C17.4314 15.1585 16.3397 14.0668 14.998 14.0668ZM14.998 4.00016C15.4564 4.00016 15.8314 4.37516 15.8314 4.8335C15.8314 5.29183 15.4564 5.66683 14.998 5.66683C14.5397 5.66683 14.1647 5.29183 14.1647 4.8335C14.1647 4.37516 14.5397 4.00016 14.998 4.00016ZM4.99805 11.5002C4.53971 11.5002 4.16471 11.1252 4.16471 10.6668C4.16471 10.2085 4.53971 9.8335 4.99805 9.8335C5.45638 9.8335 5.83138 10.2085 5.83138 10.6668C5.83138 11.1252 5.45638 11.5002 4.99805 11.5002ZM14.998 17.3335C14.5397 17.3335 14.1647 16.9585 14.1647 16.5002C14.1647 16.0418 14.5397 15.6668 14.998 15.6668C15.4564 15.6668 15.8314 16.0418 15.8314 16.5002C15.8314 16.9585 15.4564 17.3335 14.998 17.3335Z" fill="white"/>
</svg>
