<svg width="20" height="21" viewBox="0 0 20 21" fill="none" xmlns="http://www.w3.org/2000/svg">
<path d="M14.8419 17.1366L16.9682 9.61341C17.0015 9.49556 17.007 9.3716 16.9843 9.25125C16.9616 9.13091 16.9113 9.01747 16.8374 8.91985C16.7634 8.82223 16.6679 8.74309 16.5582 8.68865C16.4485 8.63421 16.3276 8.60595 16.2052 8.6061H11.6596C11.5944 8.6061 11.5301 8.5914 11.4714 8.56309C11.4127 8.53478 11.3612 8.49359 11.3206 8.4426C11.28 8.3916 11.2515 8.33211 11.2371 8.26855C11.2227 8.205 11.2229 8.13901 11.2375 8.07552L11.4355 7.21867C11.6168 6.43269 11.675 5.62296 11.6081 4.81917L11.5717 4.38243C11.5327 3.91389 11.3288 3.47435 10.9964 3.1419C10.6923 2.83773 10.2798 2.66681 9.84968 2.66675H9.75465C9.49451 2.66675 9.25495 2.80771 9.12904 3.03499L8.07619 4.92964C7.6042 5.77937 6.90062 6.4776 6.04731 6.94308L3.41063 8.3804C3.28563 8.44861 3.18133 8.54927 3.10872 8.67177C3.03611 8.79428 2.99788 8.93409 2.99805 9.07649V16.9212C2.99805 17.1312 3.08148 17.3326 3.22999 17.4812C3.37851 17.6297 3.57993 17.7131 3.78996 17.7131H14.0797C14.2521 17.713 14.4198 17.6567 14.5573 17.5527C14.6948 17.4486 14.795 17.3025 14.8419 17.1366Z" fill="white"/>
</svg>
