<svg width="27" height="19" viewBox="0 0 27 19" fill="none" xmlns="http://www.w3.org/2000/svg">
<path d="M18.5019 18.5001H0.5L0.50015 18.3321C0.500343 18.324 0.500773 18.31 0.501721 18.2907C0.503616 18.252 0.507576 18.1918 0.515825 18.1132C0.532339 17.9559 0.565931 17.7259 0.634098 17.4476C0.770601 16.8902 1.04396 16.1461 1.59054 15.4022C2.66588 13.9387 4.87636 12.3735 9.50094 12.3735C14.1255 12.3735 16.336 13.9387 17.4113 15.4022C17.9579 16.1461 18.2313 16.8902 18.3678 17.4476C18.4359 17.7259 18.4695 17.9559 18.4861 18.1132C18.4943 18.1918 18.4983 18.252 18.5002 18.2907C18.5011 18.31 18.5015 18.324 18.5017 18.3321L18.5019 18.3388V18.3395L18.5019 18.34L18.5019 18.5001Z" fill="black" stroke="black"/>
<path d="M13.032 2.42888C13.5004 3.14435 13.7509 3.98658 13.7509 4.84898C13.7509 6.00568 13.3007 7.11298 12.5024 7.92782C11.7045 8.74231 10.6244 9.19796 9.50047 9.19796C8.66212 9.19796 7.84173 8.94425 7.14298 8.46769C6.44411 7.99103 5.89787 7.31245 5.57492 6.51659C5.25192 5.72065 5.16726 4.84425 5.33205 3.99863C5.49683 3.15305 5.90331 2.37772 6.49855 1.77014C7.09367 1.16267 7.85066 0.750181 8.67319 0.583176C9.49566 0.416185 10.3483 0.501793 11.1237 0.829638C11.8992 1.15753 12.5637 1.71351 13.032 2.42888Z" fill="black" stroke="black"/>
<path fill-rule="evenodd" clip-rule="evenodd" d="M7.17586 18.9995H20.6191V18.3383C20.6191 18.3383 20.6191 13.2058 13.899 12.0867C14.7204 11.9501 15.6423 11.8735 16.6768 11.8735C26.1777 11.8735 26.1777 18.3388 26.1777 18.3388V19H7.17586V18.9995ZM13.8978 0.916252C14.103 1.06735 14.2969 1.23557 14.4773 1.41975C15.1417 2.09789 15.5941 2.96189 15.7774 3.9025C15.9607 4.84311 15.8666 5.81808 15.5071 6.70412C15.1692 7.5366 14.6113 8.25545 13.8972 8.78123C14.7012 9.37342 15.6726 9.69796 16.6768 9.69796C17.6164 9.69796 18.5348 9.41357 19.316 8.88076C20.0972 8.34795 20.7061 7.59064 21.0657 6.7046C21.4252 5.81857 21.5193 4.8436 21.336 3.90299C21.1527 2.96238 20.7003 2.09838 20.0359 1.42023C19.3715 0.742093 18.5251 0.280273 17.6036 0.093174C16.6821 -0.093925 15.7269 0.00210095 14.8589 0.369109C14.5171 0.513627 14.1948 0.697608 13.8978 0.916252Z" fill="black"/>
</svg>
