<svg width="61" height="62" viewBox="0 0 61 62" fill="none" xmlns="http://www.w3.org/2000/svg">
<path d="M59.6558 31C59.6558 47.471 46.7621 60.75 30.9461 60.75C15.13 60.75 2.23633 47.471 2.23633 31C2.23633 14.529 15.13 1.25 30.9461 1.25C46.7621 1.25 59.6558 14.529 59.6558 31Z" stroke="white" stroke-width="2.5"/>
<path d="M24.979 14.1523C19.5171 19.5782 18.4344 32.3725 21.7524 47.4496C28.2955 48.9621 37.7855 44.882 47.4609 36.7913C50.0991 25.3874 32.253 16.8893 24.979 14.1523ZM31.4775 26.1564C34.0414 26.1564 36.118 28.3052 36.118 30.958C36.118 33.611 34.0414 35.7597 31.4775 35.7597C28.9136 35.7597 26.837 33.611 26.837 30.958C26.837 28.3052 28.9136 26.1564 31.4775 26.1564Z" fill="white"/>
</svg>
