<svg width="28" height="26" viewBox="0 0 28 26" fill="none" xmlns="http://www.w3.org/2000/svg">
<g clip-path="url(#clip0_126_1006)">
<path d="M14.3911 0C14.0671 0.256983 13.7431 0.502793 13.4079 0.73743C12.7934 1.21788 12.2347 1.75419 11.7319 2.34637L11.3409 2.88268C11.2515 2.99441 11.1733 3.10615 11.1062 3.22905C11.0727 3.28492 11.0504 3.34078 11.0168 3.40782C10.961 3.49721 10.9163 3.59777 10.8828 3.69832C10.8269 3.87709 10.771 4.06704 10.7263 4.25698L10.6816 4.71508C10.6816 4.84916 10.6816 4.97207 10.6816 5.10615C10.7375 5.81006 10.8828 6.49162 11.1062 7.16201C11.4414 7.86592 11.799 8.54749 12.19 9.22905L14.1677 11.4413C14.704 10.8045 15.218 10.1564 15.7319 9.49721L16.2571 8.61452C16.6258 8.01117 16.8828 7.36313 17.0392 6.68156L17.1286 5.94413C17.1733 5.62011 17.1621 5.28492 17.0839 4.96089C17.0727 4.83799 17.0392 4.71508 17.0168 4.59218L16.8492 4.07821C16.7263 3.67598 16.5476 3.29609 16.3353 2.93855C16.0671 2.51397 15.8101 2.06704 15.5643 1.62011C15.5085 1.5419 15.4526 1.46369 15.4079 1.38547L14.38 0.0223464" fill="#DA2128"/>
<path d="M4.53609 4.71508C4.21207 4.63687 3.89922 4.54748 3.58637 4.44692C3.46347 4.42458 3.34056 4.40223 3.20649 4.37988C3.20649 4.44692 3.19531 4.52513 3.19531 4.60335L3.29587 5.41899C3.29587 5.53072 3.31822 5.65363 3.32939 5.76536L3.38526 6.16759C3.53051 7.36312 3.92157 8.51396 4.54727 9.55307C5.06123 10.3017 5.70928 10.9497 6.44671 11.486C7.21766 11.8994 8.04447 12.1899 8.90481 12.3464C9.99978 12.3128 11.0836 12.1341 12.1227 11.8324C12.1227 11.7542 12.1115 11.6871 12.0892 11.6089L11.9327 10.8492C11.6981 9.8324 11.2624 8.8715 10.6367 8.03351L10.011 7.3296C9.51934 6.7486 8.93833 6.26815 8.29029 5.87709L7.95509 5.70949C7.68693 5.57541 7.41878 5.45251 7.13945 5.35195C6.52492 5.16201 5.88805 5.01675 5.24001 4.93854C5.16179 4.90502 5.07241 4.88268 4.9942 4.86033C4.83777 4.82681 4.68135 4.78212 4.53609 4.71508Z" fill="#DA2128"/>
<path d="M22.268 5.60911C21.5641 5.47503 20.8378 5.51972 20.1451 5.74319C19.877 5.84375 19.62 5.97783 19.363 6.13425C18.7373 6.55883 18.1675 7.05045 17.6647 7.60911C17.6423 7.64263 17.6088 7.66498 17.5865 7.6985C17.363 7.989 17.173 8.32419 17.0278 8.67056C16.8937 8.99459 16.7485 9.29626 16.5697 9.59794L16.4244 9.94431C16.3462 10.1231 16.2904 10.313 16.2345 10.503L15.877 11.9667C15.9887 11.989 16.1116 12.0113 16.2233 12.0337L17.5418 12.2013C17.8211 12.246 18.1004 12.2683 18.3797 12.2683C19.5865 12.2125 20.7596 11.9108 21.8323 11.3521C21.8993 11.3186 21.9663 11.2963 22.0334 11.2627C22.5697 10.9946 23.0837 10.6817 23.5753 10.3354C24.201 9.92196 24.7373 9.37447 25.1507 8.74878C25.2848 8.57 25.3853 8.36889 25.4747 8.16777C25.6758 7.66498 25.7987 7.13984 25.8434 6.60352L24.1675 6.02252C24.1004 6.00017 24.0222 5.97783 23.9552 5.96665C23.3965 5.8214 22.8155 5.70967 22.2457 5.62028" fill="#DA2128"/>
<path d="M7.7095 17.8659C8.08939 17.7095 8.43575 17.486 8.71509 17.1955L9.34078 16.5698C9.82123 16.0558 10.2682 15.4972 10.6704 14.905C10.8492 14.6145 11.0503 14.3352 11.2402 14.067C10.3575 13.6536 9.44134 13.3072 8.50279 13.0167C7.94413 12.8603 7.3743 12.715 6.80447 12.6033C6.58101 12.5586 6.35754 12.5475 6.13408 12.5363L4.98324 12.4692C4.67039 12.4692 4.35754 12.4916 4.05587 12.5698C2.75978 12.9273 1.55307 13.5307 0.502793 14.3575L0 14.7597C0.435754 15.4301 0.905028 16.0782 1.41899 16.7039C1.45251 16.7486 1.48603 16.7933 1.51955 16.8268C1.58659 16.905 1.65363 16.9832 1.73184 17.0502L2.32402 17.6424C2.55866 17.7542 2.80447 17.8771 3.05028 17.9776C3.51955 18.2234 4.02235 18.3799 4.54749 18.4245L4.92737 18.4692C5.7095 18.4134 6.49162 18.2681 7.24022 18.0447C7.39665 17.9888 7.55307 17.9329 7.69832 17.8547" fill="#DA2128"/>
<path d="M21.4634 12.5253C21.3405 12.5141 21.2176 12.5141 21.0947 12.5253C20.8266 12.5476 20.5584 12.5923 20.2903 12.637C19.9104 12.7599 19.5417 12.9052 19.1729 13.0504C18.2791 13.3856 17.4523 13.8549 16.7148 14.4582L17.0165 15.0169C17.2065 15.3744 17.4299 15.732 17.6646 16.0672C17.9104 16.3689 18.1785 16.6482 18.4802 16.8828L18.6701 17.0169C18.7931 17.1063 18.916 17.1957 19.05 17.2515L19.2623 17.3856C19.3517 17.4415 19.4411 17.4862 19.5305 17.5309L20.3014 17.8437L20.402 17.8884C20.7148 17.989 21.0277 18.056 21.3517 18.0895C21.7316 18.123 22.1227 18.1454 22.5026 18.1454C22.5696 18.1454 22.6366 18.1454 22.7037 18.1454C22.8154 18.1454 22.916 18.1454 23.0277 18.1342C23.2735 18.1342 23.5193 18.1119 23.7539 18.0895C24.1338 18.056 24.5137 18.0113 24.8936 17.9443C25.4411 17.8549 25.9886 17.7432 26.5361 17.6091C26.7484 17.5309 26.9718 17.4527 27.1953 17.3856L27.3517 17.3409C27.4746 17.3074 27.5975 17.2739 27.7093 17.218C27.6981 17.1845 27.6869 17.1621 27.6757 17.1286C27.4076 16.4359 27.0947 15.7655 26.7484 15.1063L26.659 14.9722C26.6031 14.8828 26.5472 14.7823 26.4914 14.6817C26.2903 14.4247 26.0668 14.1789 25.8322 13.9554L25.3852 13.5867C25.2512 13.4973 25.1283 13.408 24.983 13.3409C24.1562 12.9499 23.2735 12.6929 22.3685 12.57H22.1897C21.9327 12.5253 21.6757 12.5029 21.4188 12.5029" fill="#DA2128"/>
<path d="M19.9768 18.9832C19.6527 18.6145 19.2728 18.2681 18.8706 17.9776C17.6751 17.162 16.3678 16.5251 14.9935 16.0894L14.9377 16.324C14.6471 17.2067 14.4349 18.1117 14.3231 19.0391C14.3008 19.2514 14.3008 19.4525 14.3008 19.6648C14.3008 19.7095 14.3008 19.7542 14.3008 19.7989C14.3008 20.2234 14.3678 20.648 14.4796 21.0614C14.5242 21.2178 14.5913 21.3631 14.6583 21.5083C14.8483 21.81 15.0494 22.1117 15.2617 22.4022C15.3175 22.4916 15.3958 22.5698 15.4628 22.648C15.7868 22.972 16.1444 23.2849 16.5242 23.5642C17.217 24.0447 17.9432 24.4581 18.7142 24.8044L19.1053 24.9497L20.7589 25.5307C21.0606 25.6536 21.3622 25.7653 21.6751 25.8659L21.7198 24C21.7086 23.5977 21.6751 23.1955 21.6192 22.8044C21.5969 22.4357 21.541 22.0782 21.474 21.7095C21.3958 21.2178 21.217 20.7374 20.9488 20.3128C20.6472 19.8547 20.3231 19.419 19.9879 18.9944" fill="#DA2128"/>
<path d="M12.8164 16.1117C11.5985 16.5921 10.3918 17.1173 9.20748 17.6759L8.60412 18.067C8.23541 18.4469 7.85552 18.8156 7.46446 19.162C7.08457 19.5195 6.79407 19.9665 6.6153 20.4581C6.55943 20.6368 6.52591 20.8268 6.52591 21.0279C6.49239 21.7206 6.52591 22.4246 6.64882 23.1061C6.80524 23.8435 7.00636 24.581 7.25217 25.2961L7.41977 25.9888C7.41977 25.9888 7.52033 25.9888 7.56502 25.9888C7.60971 25.9776 7.64323 25.9665 7.68792 25.9665C8.55943 25.6759 9.40859 25.3408 10.2466 24.9609C10.3248 24.9162 10.3918 24.8827 10.47 24.838C11.0287 24.5363 11.5538 24.1676 12.0119 23.7206C12.1237 23.6089 12.2242 23.486 12.3248 23.3519C12.3695 23.3072 12.4142 23.2514 12.4589 23.2067L12.5818 23.0502C13.241 22.1564 13.5985 21.0838 13.6209 19.9776C13.6209 19.81 13.6209 19.6424 13.6209 19.4748C13.5762 19.1396 13.5315 18.8156 13.4756 18.4916L13.4533 18.2905C13.3974 18.1117 13.3527 17.9329 13.3192 17.7542C13.308 17.6983 13.2857 17.6424 13.2745 17.5866C13.1516 17.1285 13.0064 16.6704 12.8611 16.2123L12.8276 16.0894" fill="#DA2128"/>
</g>
<defs>
<clipPath id="clip0_126_1006">
<rect width="27.743" height="26" fill="white"/>
</clipPath>
</defs>
</svg>
