<svg width="258" height="50" viewBox="0 0 258 50" fill="none" xmlns="http://www.w3.org/2000/svg">
<path d="M0.50584 36.65V25.015H1.28584C2.41251 28.785 3.92917 31.4283 5.83584 32.945C7.74251 34.4617 10.1258 35.22 12.9858 35.22C17.4058 35.22 19.6158 33.8117 19.6158 30.995C19.6158 29.7817 19.0742 28.8717 17.9908 28.265C16.3008 27.3117 14.1342 26.575 11.4908 26.055C8.54417 25.275 6.07417 24.235 4.08084 22.935C1.69751 21.375 0.50584 18.905 0.50584 15.525C0.50584 12.145 1.54584 9.45833 3.62584 7.465C5.70584 5.42833 8.47917 4.41 11.9458 4.41C14.0692 4.41 16.2575 4.90833 18.5108 5.905C19.3342 6.25167 19.9625 6.425 20.3958 6.425C20.8292 6.425 21.1975 6.27333 21.5008 5.97C21.8042 5.66667 22.1725 5.10333 22.6058 4.28H23.3208V14.225H22.5408C20.3308 8.59167 16.9075 5.775 12.2708 5.775C10.2342 5.775 8.71751 6.14333 7.72084 6.88C6.72417 7.57333 6.22584 8.46167 6.22584 9.545C6.22584 10.195 6.37751 10.715 6.68084 11.105C6.98417 11.4517 7.22251 11.7117 7.39584 11.885C7.56917 12.0583 7.85084 12.2533 8.24084 12.47C8.63084 12.6433 8.95584 12.795 9.21584 12.925C9.47584 13.0117 9.86584 13.1417 10.3858 13.315C10.9492 13.4883 11.3608 13.5967 11.6208 13.64C14.5675 14.3767 16.6908 15.0267 17.9908 15.59C19.2908 16.11 20.5258 16.76 21.6958 17.54C24.0792 19.1867 25.2708 21.8517 25.2708 25.535C25.2708 29.175 24.1875 31.9483 22.0208 33.855C19.8542 35.7183 16.8858 36.65 13.1158 36.65C10.4292 36.65 7.82917 36.0217 5.31584 34.765C4.79584 34.4183 4.38417 34.245 4.08084 34.245C3.12751 34.245 2.19584 35.0467 1.28584 36.65H0.50584ZM31.1444 28.135V10.81H28.1194V9.82H31.1444V2.725L41.3744 0.194999V9.82H48.5244V10.81H41.3744V29.345C41.3744 31.0683 41.5394 32.3333 41.8694 33.14C42.2361 33.9467 42.9694 34.35 44.0694 34.35C45.1694 34.35 46.1228 33.8 46.9294 32.7C47.7728 31.6 48.3228 30.0967 48.5794 28.19L49.5144 28.3C49.2211 30.83 48.4144 32.8467 47.0944 34.35C45.7744 35.8167 43.5928 36.55 40.5494 36.55C37.5061 36.55 35.1778 35.945 33.5644 34.735C31.9511 33.525 31.1444 31.325 31.1444 28.135ZM68.9049 25.165V20.49C68.9049 16.9333 68.7033 14.3483 68.2999 12.735C67.9333 11.085 67.0533 10.26 65.6599 10.26C64.8533 10.26 64.1933 10.4983 63.6799 10.975C63.2033 11.415 62.8549 12.1667 62.6349 13.23C62.3049 14.88 62.1399 17.3917 62.1399 20.765V25.055C62.1399 29.0517 62.2499 31.4533 62.4699 32.26C62.7266 33.0667 62.9833 33.7267 63.2399 34.24C63.6433 35.12 64.4316 35.56 65.6049 35.56C67.0349 35.56 67.9699 34.735 68.4099 33.085C68.7399 31.9117 68.9049 29.2717 68.9049 25.165ZM65.4949 36.55C60.9116 36.55 57.4466 35.3767 55.0999 33.03C52.7533 30.6833 51.5799 27.3283 51.5799 22.965C51.5799 18.565 52.8266 15.1917 55.3199 12.845C57.8499 10.4617 61.3883 9.27 65.9349 9.27C70.4816 9.27 73.8733 10.37 76.1099 12.57C78.3466 14.7333 79.4649 18.0517 79.4649 22.525C79.4649 31.875 74.8083 36.55 65.4949 36.55ZM100.473 11.36C99.1166 11.36 97.9249 12.24 96.8982 14C95.8716 15.76 95.3582 17.85 95.3582 20.27V35.01H99.2632V36H82.1032V35.01H85.1282V10.81H82.1032V9.82H95.3582V15.1C95.8349 13.23 96.7516 11.8 98.1082 10.81C99.4649 9.78333 101.005 9.27 102.728 9.27C104.452 9.27 105.845 9.765 106.908 10.755C108.008 11.7083 108.558 13.0833 108.558 14.88C108.558 16.64 108.155 17.9967 107.348 18.95C106.542 19.9033 105.295 20.38 103.608 20.38C101.958 20.38 100.73 19.83 99.9232 18.73C99.1532 17.63 99.0616 16.1083 99.6482 14.165H101.628C102.545 12.295 102.16 11.36 100.473 11.36ZM109.354 10.81V9.82H125.304V10.81H122.334L128.329 29.07L134.709 10.81H131.024V9.82H138.779V10.81H136.029L125.744 40.455C124.534 43.9017 123.177 46.3033 121.674 47.66C120.171 49.0533 118.337 49.75 116.174 49.75C114.011 49.75 112.306 49.255 111.059 48.265C109.812 47.275 109.189 46.01 109.189 44.47C109.189 42.93 109.592 41.7567 110.399 40.95C111.206 40.1433 112.269 39.74 113.589 39.74C116.632 39.74 118.154 41.005 118.154 43.535C118.154 44.085 118.044 44.745 117.824 45.515H115.899C115.606 46.3583 115.569 47.055 115.789 47.605C116.009 48.155 116.504 48.43 117.274 48.43C118.777 48.43 120.116 47.6783 121.289 46.175C122.462 44.7083 123.581 42.4533 124.644 39.41L125.854 36H121.014L111.609 10.81H109.354ZM142.789 36.55C141.213 36.55 140.021 36.0917 139.214 35.175C138.444 34.2217 138.059 33.085 138.059 31.765C138.059 30.4083 138.463 29.2717 139.269 28.355C140.113 27.4383 141.286 26.98 142.789 26.98C144.293 26.98 145.484 27.365 146.364 28.135C147.244 28.905 147.684 30.06 147.684 31.6C147.684 33.14 147.263 34.35 146.419 35.23C145.613 36.11 144.403 36.55 142.789 36.55ZM166.116 10.26C164.502 10.26 163.347 11.14 162.651 12.9C161.954 14.66 161.606 17.575 161.606 21.645V24.505C161.606 28.135 162.009 30.7383 162.816 32.315C163.622 33.8917 165.107 34.68 167.271 34.68C169.434 34.68 171.157 33.9467 172.441 32.48C173.724 31.0133 174.549 29.345 174.916 27.475L175.906 27.585C175.209 30.7383 173.926 33.0117 172.056 34.405C170.149 35.835 167.527 36.55 164.191 36.55C159.937 36.55 156.674 35.4133 154.401 33.14C152.127 30.83 150.991 27.475 150.991 23.075C150.991 18.6383 152.274 15.2283 154.841 12.845C157.444 10.4617 161.056 9.27 165.676 9.27C168.939 9.27 171.432 9.91166 173.156 11.195C174.879 12.4417 175.741 14.0183 175.741 15.925C175.741 17.8317 175.319 19.225 174.476 20.105C173.669 20.985 172.532 21.425 171.066 21.425C169.636 21.425 168.481 21.04 167.601 20.27C166.721 19.5 166.281 18.3633 166.281 16.86C166.281 16.2 166.372 15.54 166.556 14.88H168.371C168.627 14.1467 168.756 13.4867 168.756 12.9C168.756 11.14 167.876 10.26 166.116 10.26ZM196.168 25.165V20.49C196.168 16.9333 195.966 14.3483 195.563 12.735C195.196 11.085 194.316 10.26 192.923 10.26C192.116 10.26 191.456 10.4983 190.943 10.975C190.466 11.415 190.118 12.1667 189.898 13.23C189.568 14.88 189.403 17.3917 189.403 20.765V25.055C189.403 29.0517 189.513 31.4533 189.733 32.26C189.989 33.0667 190.246 33.7267 190.503 34.24C190.906 35.12 191.694 35.56 192.868 35.56C194.298 35.56 195.233 34.735 195.673 33.085C196.003 31.9117 196.168 29.2717 196.168 25.165ZM192.758 36.55C188.174 36.55 184.709 35.3767 182.363 33.03C180.016 30.6833 178.843 27.3283 178.843 22.965C178.843 18.565 180.089 15.1917 182.583 12.845C185.113 10.4617 188.651 9.27 193.198 9.27C197.744 9.27 201.136 10.37 203.373 12.57C205.609 14.7333 206.728 18.0517 206.728 22.525C206.728 31.875 202.071 36.55 192.758 36.55ZM209.366 9.82H222.621V14.88C223.831 11.14 226.489 9.27 230.596 9.27C234.739 9.27 237.251 11.25 238.131 15.21C239.414 11.25 242.109 9.27 246.216 9.27C251.606 9.27 254.301 12.3317 254.301 18.455V35.01H257.381V36H242.146V35.01H244.071V17.135C244.071 14.3483 243.833 12.7167 243.356 12.24C243.136 12.02 242.843 11.91 242.476 11.91C241.413 11.91 240.478 12.625 239.671 14.055C238.864 15.485 238.461 17.3 238.461 19.5V35.01H240.441V36H226.306V35.01H228.231V17.135C228.231 14.3483 227.993 12.7167 227.516 12.24C227.296 12.02 227.003 11.91 226.636 11.91C225.609 11.91 224.674 12.6983 223.831 14.275C223.024 15.815 222.621 17.6667 222.621 19.83V35.01H224.601V36H209.366V35.01H212.391V10.81H209.366V9.82Z" fill="black"/>
</svg>
