<svg width="368" height="721" viewBox="0 0 368 721" fill="none" xmlns="http://www.w3.org/2000/svg">
    <path d="M312.56 1H55.398C24.86 1 .104 24.847.104 54.264v613.472C.104 697.153 24.86 721 55.398 721H312.56c30.538 0 55.294-23.847 55.294-53.264V54.264C367.854 24.847 343.098 1 312.56 1z" fill="#3A3939"/>
    <g opacity=".8" fill="#fff">
        <path d="M5.307 667.257V54.743c0-14.037 6.337-26.724 16.386-35.526C9.01 28.881.834 43.81.834 60.496v601.008c0 16.685 8.176 31.615 20.859 41.278-10.049-8.809-16.386-21.489-16.386-35.525zM346.268 19.217c10.048 8.81 16.385 21.49 16.385 35.526v612.514c0 14.036-6.337 26.724-16.385 35.525 12.674-9.663 20.858-24.593 20.858-41.278V60.496c0-16.686-8.176-31.615-20.858-41.279z"/>
    </g>
    <g opacity=".8" fill="#fff">
        <path d="M319.162 5.181a52.02 52.02 0 0 1 20.825 4.341c-8.375-5.003-18.216-7.9-28.728-7.9H55.746c-10.512 0-20.354 2.897-28.728 7.9a51.995 51.995 0 0 1 20.825-4.34h271.319zM47.843 716.979a52.023 52.023 0 0 1-20.825-4.341c8.374 5.003 18.216 7.899 28.728 7.899h255.513c10.512 0 20.353-2.896 28.728-7.899a51.99 51.99 0 0 1-20.825 4.341H47.843z"/>
    </g>
    <path d="M314.768 6.69H57.192C29.64 6.69 7.307 28.203 7.307 54.742v612.514c0 26.539 22.334 48.053 49.885 48.053h257.576c27.55 0 49.885-21.514 49.885-48.053V54.743c0-26.54-22.335-48.054-49.885-48.054z" fill="#000"/>
    <path d="M310.224 9.466H57.734C30.185 9.466 7.85 30.98 7.85 57.52V664.48c0 26.539 22.334 48.054 49.885 48.054h252.489c27.551 0 49.885-21.515 49.885-48.054V57.52c0-26.54-22.334-48.054-49.885-48.054z" fill="url(#z863wqluca)"/>
    <path d="M313.744 10.903H54.221c-22.605 0-40.93 17.652-40.93 39.427v621.245c0 21.775 18.325 39.427 40.93 39.427h259.523c22.605 0 40.93-17.652 40.93-39.427V50.33c0-21.775-18.325-39.427-40.93-39.427z" fill="#000"/>
    <path d="M312.486 18H55.514C37.004 18 22 32.53 22 50.453v620.094C22 688.47 37.005 703 55.514 703h256.972C330.995 703 346 688.47 346 670.547V50.453C346 32.53 330.995 18 312.486 18z" fill="#fff"/>
    <g opacity=".8" fill="#9C9CA1">
        <path d="M17.767 347.61V57.52c-.588-26.03 17.27-40.776 17.212-41.67C19.995 24.165 9.84 39.75 9.84 57.52v606.977c0 17.77 10.156 33.354 25.14 41.669.058-.894-17.808-15.632-17.22-41.669V347.61h.008zM351.181 347.61V57.52c.589-26.03-17.27-40.776-17.212-41.67 14.984 8.315 25.139 23.899 25.139 41.67v606.977c0 17.77-10.155 33.354-25.139 41.669-.058-.894 17.809-15.632 17.221-41.669V347.61h-.009z"/>
    </g>
    <g clip-path="url(#399cugkesb)" fill="#000">
        <path d="M34.978 44.995h20v2.526h-20zM34.978 51.732h20v2.526h-20zM34.978 58.469h20v2.526h-20z"/>
    </g>
    <path d="M22 80.5h324" stroke="#D9D9D9"/>
    <g clip-path="url(#r3172hiatc)">
        <path d="m249.45 51.88 4.583 4.583M242.278 44.79a5.041 5.041 0 1 1 7.13 7.13 5.041 5.041 0 1 1-7.13-7.13z" stroke="#000" stroke-width="2.1" stroke-linecap="round" stroke-linejoin="round"/>
        <path d="M113.24 57.348V51.84h.369c.534 1.785 1.252 3.036 2.154 3.754.903.718 2.031 1.077 3.384 1.077 2.093 0 3.139-.667 3.139-2 0-.574-.257-1.005-.77-1.292-.799-.451-1.825-.8-3.076-1.046-1.395-.37-2.564-.862-3.508-1.477-1.128-.739-1.692-1.908-1.692-3.508s.493-2.871 1.477-3.815c.985-.964 2.297-1.446 3.938-1.446 1.005 0 2.041.236 3.108.708.389.164.687.246.892.246a.713.713 0 0 0 .523-.215c.143-.144.318-.41.523-.8h.338v4.707h-.369c-1.046-2.666-2.666-4-4.861-4-.964 0-1.682.175-2.154.524-.471.328-.707.748-.707 1.261 0 .308.071.554.215.738.144.164.256.288.339.37.082.082.215.174.399.277.185.081.339.153.462.215l.554.184c.266.082.461.134.584.154 1.395.349 2.4.657 3.015.923.616.246 1.2.554 1.754.923 1.128.78 1.692 2.041 1.692 3.785 0 1.722-.512 3.035-1.538 3.938-1.026.882-2.431 1.323-4.215 1.323-1.272 0-2.502-.298-3.692-.893-.246-.164-.441-.246-.585-.246-.451 0-.892.38-1.323 1.139h-.369zm14.502-4.03v-8.201h-1.431v-.469h1.431V41.29l4.843-1.198v4.556h3.384v.469h-3.384v8.773c0 .816.078 1.414.234 1.796.174.382.521.573 1.041.573.521 0 .972-.26 1.354-.781.399-.52.66-1.232.781-2.135l.443.052c-.139 1.198-.521 2.152-1.146 2.864-.625.694-1.657 1.041-3.098 1.041-1.44 0-2.542-.286-3.306-.859-.764-.573-1.146-1.614-1.146-3.124zm17.874-1.407V49.7c0-1.684-.096-2.907-.287-3.671-.173-.781-.59-1.172-1.249-1.172-.382 0-.694.113-.937.339-.226.208-.391.564-.495 1.067-.156.781-.234 1.97-.234 3.567v2.03c0 1.892.052 3.029.156 3.41.121.383.243.695.364.938.191.416.564.625 1.12.625.677 0 1.119-.39 1.327-1.172.157-.555.235-1.805.235-3.749zm-1.614 5.39c-2.17 0-3.81-.556-4.921-1.667-1.11-1.11-1.666-2.699-1.666-4.764 0-2.083.59-3.68 1.771-4.79 1.197-1.128 2.872-1.692 5.024-1.692s3.758.52 4.816 1.562c1.059 1.024 1.588 2.594 1.588 4.712 0 4.425-2.204 6.638-6.612 6.638zm16.556-11.924c-.642 0-1.206.417-1.692 1.25s-.729 1.822-.729 2.967v6.977h1.848v.469h-8.122v-.469h1.432V45.117h-1.432v-.469h6.274v2.5c.226-.886.66-1.563 1.302-2.031a3.529 3.529 0 0 1 2.186-.73c.816 0 1.476.235 1.979.704.521.45.781 1.102.781 1.952 0 .833-.191 1.475-.573 1.927-.381.45-.972.677-1.77.677-.781 0-1.362-.26-1.744-.782-.365-.52-.408-1.24-.13-2.16h.937c.434-.885.252-1.328-.547-1.328zm4.204-.26v-.469h7.549v.469h-1.405l2.837 8.643 3.02-8.643h-1.744v-.469h3.671v.469h-1.302l-4.868 14.032c-.573 1.631-1.215 2.768-1.927 3.41-.711.66-1.579.99-2.603.99-1.024 0-1.831-.235-2.421-.704-.591-.468-.885-1.067-.885-1.796 0-.729.19-1.284.572-1.666.382-.382.885-.573 1.51-.573 1.441 0 2.161.599 2.161 1.797 0 .26-.052.572-.156.937h-.911c-.139.399-.157.729-.052.989.104.26.338.39.702.39.712 0 1.346-.355 1.901-1.067.555-.694 1.085-1.762 1.588-3.202l.573-1.614h-2.291l-4.452-11.923h-1.067zM180.588 57.3c-.746 0-1.311-.217-1.693-.65-.364-.452-.546-.99-.546-1.615 0-.642.191-1.18.572-1.614.4-.434.955-.65 1.667-.65.711 0 1.275.182 1.692.546.416.365.625.911.625 1.64 0 .73-.2 1.302-.599 1.718-.382.417-.954.625-1.718.625zm11.041-12.444c-.764 0-1.311.417-1.64 1.25-.33.833-.495 2.213-.495 4.14v1.353c0 1.718.191 2.95.573 3.697.382.746 1.084 1.12 2.109 1.12 1.024 0 1.839-.348 2.447-1.042a5.004 5.004 0 0 0 1.171-2.37l.469.053c-.33 1.492-.937 2.569-1.822 3.228-.903.677-2.144 1.015-3.723 1.015-2.014 0-3.558-.538-4.634-1.614-1.076-1.093-1.614-2.681-1.614-4.764 0-2.1.607-3.714 1.822-4.842 1.232-1.128 2.942-1.692 5.129-1.692 1.544 0 2.724.303 3.54.911.816.59 1.224 1.336 1.224 2.239 0 .902-.2 1.562-.599 1.978-.382.417-.92.625-1.614.625-.677 0-1.224-.182-1.64-.547-.417-.364-.625-.902-.625-1.614 0-.312.043-.624.13-.937h.859c.122-.347.183-.66.183-.937 0-.833-.417-1.25-1.25-1.25zm14.225 7.055V49.7c0-1.684-.096-2.907-.287-3.671-.173-.781-.59-1.172-1.249-1.172-.382 0-.695.113-.938.339-.225.208-.39.564-.494 1.067-.156.781-.234 1.97-.234 3.567v2.03c0 1.892.052 3.029.156 3.41.121.383.243.695.364.938.191.416.564.625 1.12.625.677 0 1.119-.39 1.327-1.172.157-.555.235-1.805.235-3.749zm-1.614 5.39c-2.17 0-3.81-.556-4.921-1.667-1.111-1.11-1.666-2.699-1.666-4.764 0-2.083.59-3.68 1.77-4.79 1.198-1.128 2.873-1.692 5.025-1.692s3.757.52 4.816 1.562c1.058 1.024 1.588 2.594 1.588 4.712 0 4.425-2.204 6.638-6.612 6.638zm7.861-12.653h6.274v2.395c.572-1.77 1.831-2.655 3.775-2.655 1.961 0 3.15.937 3.566 2.811.607-1.874 1.883-2.811 3.827-2.811 2.551 0 3.827 1.449 3.827 4.347v7.836h1.458v.469h-7.211v-.469h.911v-8.46c0-1.32-.113-2.092-.339-2.317a.562.562 0 0 0-.416-.157c-.503 0-.946.339-1.328 1.016-.382.677-.573 1.536-.573 2.577v7.341h.938v.469h-6.691v-.469h.911v-8.46c0-1.32-.113-2.092-.338-2.317a.563.563 0 0 0-.417-.157c-.486 0-.929.373-1.328 1.12-.382.729-.572 1.605-.572 2.63v7.184h.937v.469h-7.211v-.469h1.432V45.117h-1.432v-.469z" fill="#000"/>
    </g>
    <path d="M48.282 245.76c4.632 0 8.16 2.376 8.16 5.952 0 3.264-2.712 5.472-6.48 5.952v3.408h8.16v2.736H38.49v-2.736h8.112v-3.408c-3.768-.48-6.48-2.688-6.48-5.952 0-3.576 3.528-5.952 8.16-5.952zm-4.8 5.952c0 2.208 1.944 3.36 4.8 3.36 2.88 0 4.824-1.152 4.8-3.36.024-2.04-1.92-3.288-4.8-3.264-2.856-.024-4.8 1.224-4.8 3.264zm33.126-2.88v2.64H61.584v-6.528h3.36v3.888h11.664zm-17.424 6.528v-2.64h19.68v2.64h-19.68zm2.208 10.656v-6.048H73.2v-.96H61.392v-2.544H76.56v5.904H64.8v1.056h12.384v2.592H61.392zM43.666 653.12c-1.74 0-2.772-1.632-2.76-4.368-.012-2.724 1.032-4.356 2.76-4.344 1.716-.012 2.76 1.62 2.76 4.344 0 2.736-1.032 4.368-2.76 4.368zm-2.16-4.368c-.012 2.4.804 3.804 2.16 3.816 1.344-.012 2.16-1.416 2.16-3.816 0-2.388-.816-3.804-2.16-3.792-1.356-.012-2.172 1.404-2.16 3.792zm9.22 4.368c-1.56 0-2.712-.936-2.736-2.256h.6c.036 1.008.96 1.692 2.136 1.704 1.272-.012 2.16-.792 2.16-1.824 0-1.08-.936-1.836-2.352-1.824h-.384v-.552h.384c1.188-.012 2.076-.684 2.064-1.728.012-.984-.744-1.692-1.872-1.68-1.08-.012-1.932.66-1.944 1.68h-.6c.024-1.32 1.128-2.244 2.568-2.232 1.464-.012 2.448.972 2.448 2.208 0 .984-.6 1.716-1.536 1.968v.048c1.116.24 1.824 1.044 1.824 2.112 0 1.356-1.152 2.376-2.76 2.376zm4.647-.072a.467.467 0 0 1-.48-.48.48.48 0 0 1 .48-.504.5.5 0 0 1 .504.504.487.487 0 0 1-.504.48zm7.52-8.544V653h-.623v-7.848h-.049l-1.967 1.272v-.624l1.968-1.296h.672zm5.116 8.616c-1.632 0-2.868-1.008-2.856-2.328-.012-1.056.768-1.98 1.8-2.184v-.024c-.876-.264-1.5-1.056-1.488-1.992-.012-1.248 1.104-2.196 2.544-2.184 1.44-.012 2.568.936 2.568 2.184 0 .924-.6 1.728-1.488 1.992v.024a2.246 2.246 0 0 1 1.8 2.184c0 1.32-1.236 2.328-2.88 2.328zm-2.256-2.376c0 1.032.948 1.812 2.256 1.824 1.332-.012 2.28-.792 2.28-1.824 0-1.044-.984-1.86-2.28-1.872-1.272.012-2.256.828-2.256 1.872zm.312-4.104c-.012.96.852 1.716 1.944 1.728 1.116-.012 1.98-.768 1.968-1.728.012-.984-.84-1.692-1.968-1.704-1.104.012-1.956.72-1.944 1.704zm12.506 1.848v.552h-3.408v-.552h3.408zm7.037 4.632c-1.74 0-2.772-1.632-2.76-4.368-.012-2.724 1.032-4.356 2.76-4.344 1.716-.012 2.76 1.62 2.76 4.344 0 2.736-1.032 4.368-2.76 4.368zm-2.16-4.368c-.012 2.4.804 3.804 2.16 3.816 1.344-.012 2.16-1.416 2.16-3.816 0-2.388-.816-3.804-2.16-3.792-1.356-.012-2.172 1.404-2.16 3.792zm6.267 2.376v-.504l3.912-6.12h.72v6.072h1.152v.552h-1.152V653h-.576v-1.872h-4.056zm.72-.552h3.336v-5.16h-.072l-3.264 5.112v.048zm6.75 2.472a.467.467 0 0 1-.48-.48.48.48 0 0 1 .48-.504.5.5 0 0 1 .504.504.487.487 0 0 1-.503.48zm5.121-.048v-.456l2.832-3.144c1.176-1.32 1.596-1.92 1.608-2.736-.012-1.008-.816-1.716-1.872-1.704-1.14-.012-1.884.768-1.896 1.8h-.576c0-1.356 1.044-2.364 2.472-2.352 1.416-.012 2.436.96 2.448 2.256-.012.936-.432 1.632-1.848 3.192l-2.304 2.544v.048h4.512V653h-5.376zm9.622.12c-1.74 0-2.772-1.632-2.76-4.368-.012-2.724 1.032-4.356 2.76-4.344 1.716-.012 2.76 1.62 2.76 4.344 0 2.736-1.032 4.368-2.76 4.368zm-2.16-4.368c-.012 2.4.804 3.804 2.16 3.816 1.344-.012 2.16-1.416 2.16-3.816 0-2.388-.816-3.804-2.16-3.792-1.356-.012-2.172 1.404-2.16 3.792zM39.864 630v-12.744h4.86c2.754.018 4.122 1.422 4.14 3.312-.018 1.548-.99 2.412-2.232 2.7v.144c1.35.072 2.718 1.188 2.7 3.132.018 1.98-1.422 3.456-4.32 3.456h-5.148zm2.268-1.908h2.52c1.674 0 2.376-.72 2.376-1.728 0-1.152-.9-2.016-2.304-2.016h-2.592v3.744zm0-5.4h2.304c1.206 0 2.124-.702 2.124-1.836 0-.972-.702-1.692-2.052-1.692h-2.376v3.528zm11.194-5.436V630h-2.232v-12.744h2.232zm6.338 12.924c-2.808.018-4.59-1.962-4.572-4.896-.018-2.988 1.764-4.95 4.572-4.968 2.772.018 4.554 1.98 4.572 4.968-.018 2.934-1.8 4.914-4.572 4.896zm-2.304-4.932c-.018 1.764.756 3.15 2.304 3.132 1.53.018 2.286-1.368 2.304-3.132-.018-1.746-.774-3.15-2.304-3.132-1.548-.018-2.322 1.386-2.304 3.132zm12.78 4.932c-2.807.018-4.59-1.962-4.571-4.896-.018-2.988 1.764-4.95 4.572-4.968 2.772.018 4.554 1.98 4.572 4.968-.018 2.934-1.8 4.914-4.572 4.896zm-2.303-4.932c-.018 1.764.756 3.15 2.304 3.132 1.53.018 2.286-1.368 2.304-3.132-.018-1.746-.774-3.15-2.304-3.132-1.548-.018-2.322 1.386-2.304 3.132zM76.44 630v-9.54h2.124v1.62h.144c.378-1.098 1.35-1.746 2.628-1.764 1.278.018 2.196.684 2.556 1.764h.108c.432-1.062 1.476-1.746 2.88-1.764 1.746.018 2.97 1.152 2.988 3.276V630h-2.268v-6.048c.018-1.206-.702-1.746-1.62-1.728-1.098-.018-1.746.738-1.728 1.8V630h-2.196v-6.156c0-.99-.666-1.638-1.62-1.62-.972-.018-1.764.792-1.764 1.98V630h-2.232zm15.557 0v-9.54h2.232V630h-2.232zm-.18-12.132c0-.666.594-1.206 1.296-1.224.72.018 1.296.558 1.296 1.224 0 .684-.576 1.224-1.296 1.224-.702 0-1.296-.54-1.296-1.224zm6.806 6.552V630h-2.231v-9.54h2.123v1.62h.144c.433-1.08 1.404-1.746 2.845-1.764 1.962.018 3.258 1.314 3.24 3.6V630h-2.232v-5.724c.018-1.296-.684-2.052-1.872-2.052-1.17 0-2.017.792-2.017 2.196zm12.42 9.36c-2.52 0-4.122-1.134-4.284-2.916h2.232c.18.828.954 1.224 2.088 1.224 1.368 0 2.232-.576 2.232-1.98v-1.836h-.108c-.342.702-1.116 1.584-2.736 1.584-2.232 0-3.96-1.602-3.96-4.716 0-3.132 1.746-4.806 3.96-4.824 1.674.018 2.394 1.026 2.736 1.692h.108v-1.548h2.232v9.684c-.018 2.448-1.908 3.636-4.5 3.636zm-2.232-8.604c-.018 1.764.774 2.934 2.268 2.916 1.422.018 2.25-1.08 2.232-2.916.018-1.8-.792-3.006-2.232-3.024-1.512.018-2.286 1.296-2.268 3.024zM126.379 630h-4.32v-12.744h4.392c3.798.018 6.084 2.394 6.084 6.372 0 3.978-2.286 6.372-6.156 6.372zm-2.052-1.98h1.944c2.646 0 3.996-1.476 3.996-4.392 0-2.916-1.35-4.374-3.96-4.392h-1.98v8.784zm9.725-.684c-.018-2.178 1.764-2.79 3.528-2.916.684-.054 2.052-.108 2.448-.126v-.774c0-.936-.612-1.476-1.728-1.476-.99 0-1.602.45-1.764 1.116h-2.196c.18-1.602 1.638-2.826 4.032-2.844 1.8.018 3.888.756 3.888 3.312V630h-2.16v-1.296h-.072c-.396.774-1.296 1.494-2.808 1.476-1.8.018-3.186-.99-3.168-2.844zm2.16-.036c-.018.81.666 1.242 1.584 1.26 1.386-.018 2.25-.918 2.232-1.98v-.792c-.432.018-1.638.09-2.088.144-1.062.072-1.746.522-1.728 1.368zm9.167 6.264a7.52 7.52 0 0 1-1.152-.036v-1.8c.27.036.666.036.936.036.558 0 1.026-.036 1.404-1.044l.18-.504-3.456-9.756h2.376l2.196 7.2h.108l2.232-7.2h2.376l-3.852 10.692c-.54 1.53-1.548 2.43-3.348 2.412zm13.999-10.404c-.144-.702-.738-1.17-1.692-1.152-.954-.018-1.656.468-1.656 1.116 0 .504.396.864 1.368 1.08l1.62.36c1.8.378 2.682 1.224 2.664 2.592.018 1.782-1.566 3.042-4.032 3.024-2.448.018-3.888-1.08-4.104-2.916h2.268c.144.828.774 1.224 1.8 1.224 1.098 0 1.8-.432 1.8-1.152 0-.54-.432-.9-1.368-1.116l-1.548-.324c-1.782-.36-2.7-1.278-2.7-2.628 0-1.782 1.53-2.934 3.852-2.952 2.286.018 3.69 1.134 3.852 2.844h-2.124zM38.496 119l-.028-1.288 3.5-3.36c1.008-1.008 1.526-1.596 1.54-2.436-.014-.924-.742-1.498-1.708-1.512-1.022.014-1.68.644-1.68 1.652h-1.68c-.014-1.876 1.4-3.094 3.388-3.08 2.002-.014 3.374 1.19 3.388 2.856-.014 1.12-.56 2.03-2.492 3.864l-1.764 1.736v.084h4.396V119h-6.86zm12.062.14c-2.394 0-3.808-1.848-3.808-5.096 0-3.22 1.428-5.082 3.808-5.068 2.366-.014 3.794 1.848 3.808 5.068-.014 3.248-1.442 5.096-3.808 5.096zm-2.016-5.096c0 2.38.77 3.598 2.016 3.584 1.232.014 2.002-1.204 1.988-3.584.014-2.352-.756-3.598-1.988-3.612-1.246.014-2.016 1.26-2.016 3.612zM55.846 119l-.028-1.288 3.5-3.36c1.008-1.008 1.526-1.596 1.54-2.436-.014-.924-.742-1.498-1.708-1.512-1.022.014-1.68.644-1.68 1.652h-1.68c-.014-1.876 1.4-3.094 3.388-3.08 2.002-.014 3.374 1.19 3.388 2.856-.014 1.12-.56 2.03-2.492 3.864l-1.764 1.736v.084h4.396V119h-6.86zm8.02-1.848v-1.428l4.285-6.636h2.212v6.608h1.288v1.456h-1.288V119h-1.708v-1.848h-4.788zm1.82-1.456h2.997v-4.564h-.084l-2.912 4.48v.084zm8.218 3.416a1.073 1.073 0 0 1-1.064-1.064c0-.574.49-1.05 1.064-1.064.574.014 1.064.49 1.064 1.064 0 .588-.49 1.064-1.064 1.064zm9.412.028c-2.394 0-3.808-1.848-3.808-5.096 0-3.22 1.428-5.082 3.808-5.068 2.366-.014 3.794 1.848 3.808 5.068-.014 3.248-1.442 5.096-3.808 5.096zm-2.016-5.096c0 2.38.77 3.598 2.016 3.584 1.232.014 2.002-1.204 1.988-3.584.014-2.352-.756-3.598-1.988-3.612-1.246.014-2.016 1.26-2.016 3.612zm7.108 3.108v-1.428l4.284-6.636h2.212v6.608h1.288v1.456h-1.288V119h-1.708v-1.848h-4.788zm1.82-1.456h2.996v-4.564h-.084l-2.912 4.48v.084zM49.855 144.048c1.524 0 2.604.9 2.616 2.232-.012 1.32-1.092 2.208-2.616 2.208-1.512 0-2.604-.888-2.616-2.208.012-1.332 1.104-2.232 2.616-2.232zm-2.04 2.232c-.012.984.864 1.74 2.04 1.728 1.188.012 2.064-.744 2.064-1.728 0-.996-.876-1.752-2.064-1.752-1.176 0-2.052.756-2.04 1.752zm1.008 3.72v-.48h6.528v2.256h-5.952v1.464h6.384v.48h-6.936v-2.4h5.952V150h-5.976zm5.976-1.032v-5.352h.552v5.352h-.552z" fill="#000"/>
    <circle cx="51.656" cy="178" r="14" fill="#fff"/>
    <path d="M48.981 172.172V183.5h-2.048v-9.344h-.064l-2.656 1.696v-1.856l2.816-1.824h1.952zm3.136 11.328 4.928-9.536v-.064H51.35v-1.728h7.808v1.76L54.23 183.5h-2.112z" fill="#888"/>
    <path d="M99.255 143.616v6.12h-.552v-.72H96.47v-.432h2.232v-4.968h.552zm-8.352 4.032c1.992.024 4.572-.012 6.816-.288l.048.408c-1.068.156-2.196.24-3.288.3v1.716h-.528v-1.704c-1.056.048-2.076.048-2.976.048l-.072-.48zm.864-2.256c-.012-.96.972-1.536 2.52-1.536 1.524 0 2.508.576 2.52 1.536-.012.972-.996 1.548-2.52 1.536-1.548.012-2.532-.564-2.52-1.536zm.528 0c-.012.66.78 1.128 1.992 1.128 1.188 0 1.98-.468 1.992-1.128-.012-.648-.804-1.104-1.992-1.104-1.212 0-2.004.456-1.992 1.104zm.24 5.208v-.456h6.72v1.944H93.11v1.176h6.576v.456h-7.104v-2.064h6.12V150.6h-6.168z" fill="#000"/>
    <circle cx="95.656" cy="178" r="14" fill="#000"/>
    <path d="M91.99 172.172V183.5H89.94v-9.344h-.064l-2.656 1.696v-1.856l2.816-1.824h1.952zm6.847 11.488c-2.528 0-4.32-1.344-4.32-3.2 0-1.424 1.072-2.592 2.432-2.816v-.064c-1.184-.256-1.984-1.28-1.984-2.528 0-1.744 1.632-3.024 3.872-3.008 2.208-.016 3.84 1.264 3.84 3.008 0 1.248-.816 2.272-1.984 2.528v.064c1.344.224 2.432 1.392 2.432 2.816 0 1.856-1.792 3.2-4.288 3.2zm-2.208-3.36c-.016 1.024.848 1.744 2.208 1.76 1.328-.016 2.192-.736 2.176-1.76.016-1.088-.912-1.872-2.176-1.856-1.28-.016-2.224.768-2.208 1.856zm.32-5.056c0 .992.784 1.68 1.888 1.664 1.072.016 1.872-.672 1.856-1.664.016-.96-.752-1.616-1.856-1.632-1.136.016-1.888.672-1.888 1.632z" fill="#fff"/>
    <path d="M142.751 143.616v4.488h1.848v.48h-1.848v5.304h-.552v-10.272h.552zm-7.92 7.632c.888 0 1.944-.012 3.024-.048v-1.308c-1.272-.084-2.1-.792-2.088-1.86-.012-1.152.936-1.896 2.376-1.896 1.404 0 2.364.744 2.376 1.896-.012 1.08-.852 1.776-2.112 1.86v1.284c1.044-.048 2.112-.132 3.096-.288l.048.456c-2.28.372-4.752.408-6.6.408l-.12-.504zm.168-5.832v-.48h2.856v-1.344h.552v1.344h2.856v.48h-6.264zm1.272 2.616c.012.828.756 1.404 1.872 1.392 1.092.012 1.824-.564 1.824-1.392s-.732-1.428-1.824-1.44c-1.116.012-1.86.612-1.872 1.44z" fill="#000"/>
    <circle cx="139.656" cy="178" r="14" fill="#fff"/>
    <path d="M135.958 172.172V183.5h-2.048v-9.344h-.064l-2.656 1.696v-1.856l2.816-1.824h1.952zm6.752-.128c2.208 0 4.4 1.328 4.416 5.44 0 3.92-1.776 6.176-4.544 6.176-2.192 0-3.696-1.36-3.936-3.232h2.016c.208.896.896 1.472 1.92 1.472 1.632 0 2.56-1.456 2.56-3.872h-.128c-.56.976-1.648 1.552-2.88 1.568-2.032-.016-3.6-1.552-3.584-3.68-.016-2.224 1.648-3.904 4.16-3.872zm-2.208 3.808c.016 1.216.912 2.176 2.176 2.176 1.264 0 2.24-1.008 2.24-2.176-.016-1.168-.928-2.176-2.208-2.176-1.264 0-2.208.976-2.208 2.176z" fill="#888"/>
    <path d="M183.919 144.672c0 1.596 2.316 2.784 3.84 3.024l-.24.48c-1.416-.276-3.264-1.176-3.876-2.544-.6 1.38-2.448 2.268-3.876 2.544l-.24-.48c1.536-.24 3.828-1.392 3.84-3.024v-.648h.552v.648zm-4.968 5.352v-.504h9.36v.504h-4.416v3.864h-.552v-3.864h-4.392z" fill="#000"/>
    <circle cx="183.656" cy="178" r="14" fill="#fff"/>
    <path d="m174.202 183.5-.032-1.472 4-3.84c1.152-1.152 1.744-1.824 1.76-2.784-.016-1.056-.848-1.712-1.952-1.728-1.168.016-1.92.736-1.92 1.888h-1.92c-.016-2.144 1.6-3.536 3.872-3.52 2.288-.016 3.856 1.36 3.872 3.264-.016 1.28-.64 2.32-2.848 4.416l-2.016 1.984v.096h5.024v1.696h-7.84zm13.785.16c-2.736 0-4.352-2.112-4.352-5.824 0-3.68 1.632-5.808 4.352-5.792 2.704-.016 4.336 2.112 4.352 5.792-.016 3.712-1.648 5.824-4.352 5.824zm-2.304-5.824c0 2.72.88 4.112 2.304 4.096 1.408.016 2.288-1.376 2.272-4.096.016-2.688-.864-4.112-2.272-4.128-1.424.016-2.304 1.44-2.304 4.128z" fill="#888"/>
    <path d="M231.087 144.048v3.384h-3.168v1.512h4.392v.48h-9.36v-.48h4.416v-1.512h-3.168v-3.384h6.888zm-7.08 7.128v-.48h7.128v3.192h-.576v-2.712h-6.552zm.744-4.224h5.784v-2.424h-5.784v2.424z" fill="#000"/>
    <circle cx="227.656" cy="178" r="14" fill="#fff"/>
    <path d="m220.14 183.5-.032-1.472 4-3.84c1.152-1.152 1.744-1.824 1.76-2.784-.016-1.056-.848-1.712-1.952-1.728-1.168.016-1.92.736-1.92 1.888h-1.92c-.016-2.144 1.6-3.536 3.872-3.52 2.288-.016 3.856 1.36 3.872 3.264-.016 1.28-.64 2.32-2.848 4.416l-2.016 1.984v.096h5.024v1.696h-7.84zm14.201-11.328V183.5h-2.048v-9.344h-.064l-2.656 1.696v-1.856l2.816-1.824h1.952z" fill="#888"/>
    <path d="M275.039 144.216v.72c.012.804.012 1.776-.3 3.12h1.62v.48h-9.408v-.48h7.236c.312-1.356.312-2.328.324-3.12v-.24h-6.312v-.48h6.84zm-6.888 9.504v-3.552h6.984v3.552h-6.984zm.552-.48h5.904v-2.616h-5.904v2.616z" fill="#000"/>
    <circle cx="271.656" cy="178" r="14" fill="#fff"/>
    <path d="m262.491 183.5-.032-1.472 4-3.84c1.152-1.152 1.744-1.824 1.76-2.784-.016-1.056-.848-1.712-1.952-1.728-1.168.016-1.92.736-1.92 1.888h-1.92c-.016-2.144 1.6-3.536 3.872-3.52 2.288-.016 3.856 1.36 3.872 3.264-.016 1.28-.64 2.32-2.848 4.416l-2.016 1.984v.096h5.024v1.696h-7.84zm9.625 0-.032-1.472 4-3.84c1.152-1.152 1.744-1.824 1.76-2.784-.016-1.056-.848-1.712-1.952-1.728-1.168.016-1.92.736-1.92 1.888h-1.92c-.016-2.144 1.6-3.536 3.872-3.52 2.288-.016 3.856 1.36 3.872 3.264-.016 1.28-.64 2.32-2.848 4.416l-2.016 1.984v.096h5.024v1.696h-7.84z" fill="#888"/>
    <path d="M319.231 149.112v.48h-3.336v2.4h4.464v.504h-9.408v-.504h4.392v-2.4h-3.096v-5.04h6.864v.48h-6.312v1.728h6.096v.48h-6.096v1.872h6.432z" fill="#000"/>
    <circle cx="315.656" cy="178" r="14" fill="#fff"/>
    <path d="m306.249 183.5-.032-1.472 4-3.84c1.152-1.152 1.744-1.824 1.76-2.784-.016-1.056-.848-1.712-1.952-1.728-1.168.016-1.92.736-1.92 1.888h-1.92c-.016-2.144 1.6-3.536 3.872-3.52 2.288-.016 3.856 1.36 3.872 3.264-.016 1.28-.64 2.32-2.848 4.416l-2.016 1.984v.096h5.024v1.696h-7.84zm13.721.16c-2.416 0-4.144-1.312-4.192-3.232h2.048c.048.912.96 1.52 2.144 1.504 1.232.016 2.128-.672 2.144-1.664-.016-1.04-.88-1.76-2.368-1.76h-.992v-1.568h.992c1.216 0 2.048-.672 2.048-1.664 0-.944-.72-1.584-1.824-1.6-1.056.016-1.968.608-2.016 1.568h-1.952c.048-1.904 1.776-3.216 4-3.2 2.288-.016 3.776 1.392 3.744 3.136.032 1.264-.816 2.176-2.048 2.432v.096c1.6.208 2.496 1.232 2.496 2.656 0 1.904-1.792 3.296-4.224 3.296z" fill="#888"/>
    <path d="M301.903 654v-.767l2.881-3.153c.338-.37.617-.691.835-.964.219-.275.381-.534.486-.775.108-.244.162-.5.162-.767a1.413 1.413 0 0 0-.818-1.317 1.936 1.936 0 0 0-.852-.183c-.336 0-.628.069-.878.209a1.442 1.442 0 0 0-.576.575c-.133.247-.2.537-.2.869h-1.005c0-.511.117-.96.353-1.346.236-.387.557-.688.963-.904a2.903 2.903 0 0 1 1.377-.324c.511 0 .964.108 1.359.324.395.216.705.507.929.874.224.366.337.774.337 1.223 0 .321-.059.635-.175.942-.114.304-.313.643-.597 1.018-.281.372-.672.827-1.172 1.364l-1.96 2.096v.068h4.057V654h-5.506z" fill="#000"/>
    <path d="m316.835 644.864-2.812 10.448h-.712l2.813-10.448h.711z" fill="#D9D9D9"/>
    <path d="M325.524 654.119c-.486 0-.92-.098-1.304-.294a2.396 2.396 0 0 1-.912-.818 2.278 2.278 0 0 1-.358-1.189h.772c.025.463.207.844.545 1.142.338.296.757.443 1.257.443a1.96 1.96 0 0 0 1.04-.277 1.95 1.95 0 0 0 .712-.767c.173-.326.26-.694.26-1.103a2.303 2.303 0 0 0-.277-1.125 1.997 1.997 0 0 0-1.786-1.044 2.473 2.473 0 0 0-.861.145 2.272 2.272 0 0 0-.703.383l-.797-.102.524-4.24h4.313v.716h-3.644l-.349 2.919h.043a2.37 2.37 0 0 1 .703-.397 2.54 2.54 0 0 1 .882-.153c.514 0 .976.124 1.385.371.412.247.737.588.976 1.022.241.432.362.929.362 1.492a3 3 0 0 1-.362 1.479 2.682 2.682 0 0 1-.989 1.022c-.418.25-.895.375-1.432.375z" fill="#888"/>
    <path fill="#D9D9D9" d="M38 216h292v1H38z"/>
    <defs>
        <clipPath id="399cugkesb">
            <path fill="#fff" transform="translate(34.978 42.995)" d="M0 0h20v20H0z"/>
        </clipPath>
        <clipPath id="r3172hiatc">
            <path fill="#fff" transform="translate(113 40)" d="M0 0h142v23.667H0z"/>
        </clipPath>
        <linearGradient id="z863wqluca" x1="7.85" y1="361" x2="360.109" y2="361" gradientUnits="userSpaceOnUse">
            <stop/>
            <stop offset=".11" stop-color="#1E1E1E"/>
            <stop offset=".52" stop-color="#B3B3B3"/>
            <stop offset=".91" stop-color="#1E1E1E"/>
            <stop offset=".98"/>
        </linearGradient>
    </defs>
</svg>
